<svg id="b17333b7-e5f1-4734-82d9-55da5f1280ee" data-name="Capa 1" xmlns="http://www.w3.org/2000/svg" viewBox="0 0 201.16 38.69"><title>new_brand_mc</title><path d="M38.68,7.61q0.55,1,1.27,2.49t1.5,3.2Q42.22,15,43,16.83l1.44,3.39,1.44-3.39q0.76-1.8,1.54-3.52t1.5-3.2q0.72-1.48,1.27-2.49h4.33q0.3,2.1.56,4.71t0.46,5.43q0.2,2.82.37,5.66t0.29,5.34H51.55Q51.46,25.67,51.3,22t-0.46-7.32l-1.22,2.84q-0.67,1.56-1.33,3.11t-1.27,3l-1,2.42H42.66l-1-2.42q-0.61-1.42-1.27-3T39,17.56l-1.22-2.84q-0.3,3.69-.46,7.32t-0.24,6.71H32.45q0.12-2.5.29-5.34t0.37-5.66q0.2-2.82.46-5.43t0.56-4.71h4.54Z" style="fill:#fff"/><path d="M65,12.28a10.52,10.52,0,0,1,3.35.46,5.21,5.21,0,0,1,2.15,1.31,4.83,4.83,0,0,1,1.14,2.07A10.24,10.24,0,0,1,72,18.84v9.45q-1,.21-2.71.5a26.18,26.18,0,0,1-4.21.29,13.31,13.31,0,0,1-2.82-.27,6.11,6.11,0,0,1-2.18-.9,4.11,4.11,0,0,1-1.4-1.63,5.63,5.63,0,0,1-.49-2.47,4.68,4.68,0,0,1,.56-2.38,4.34,4.34,0,0,1,1.51-1.56A6.82,6.82,0,0,1,62.37,19a12.15,12.15,0,0,1,2.53-.26,14.39,14.39,0,0,1,1.57.08,7,7,0,0,1,1.11.2V18.63a2.52,2.52,0,0,0-.7-1.86,3.4,3.4,0,0,0-2.44-.7,15.53,15.53,0,0,0-2.29.17,9.82,9.82,0,0,0-2,.47L59.63,13q0.4-.12,1-0.26t1.3-.24q0.7-.11,1.48-0.18T65,12.28Zm0.37,13.3q0.67,0,1.28,0a8.67,8.67,0,0,0,1-.09V22q-0.27-.06-0.82-0.12a9.21,9.21,0,0,0-1-.06,9.1,9.1,0,0,0-1.21.08,3.15,3.15,0,0,0-1,.29,1.7,1.7,0,0,0-.67.58,1.61,1.61,0,0,0-.24.92,1.56,1.56,0,0,0,.72,1.48A4,4,0,0,0,65.33,25.58Z" style="fill:#fff"/><path d="M79.76,25.49a4.53,4.53,0,0,0,1.77-.24A0.94,0.94,0,0,0,82,24.3a1.16,1.16,0,0,0-.67-1,12.87,12.87,0,0,0-2-.93,20.74,20.74,0,0,1-1.94-.82,5.69,5.69,0,0,1-1.48-1A4.13,4.13,0,0,1,75,19.14a5.24,5.24,0,0,1-.34-2,4.29,4.29,0,0,1,1.68-3.57,7.3,7.3,0,0,1,4.61-1.31,14.77,14.77,0,0,1,2.81.26,13.09,13.09,0,0,1,2.14.56l-0.79,3.54a16.77,16.77,0,0,0-1.72-.49,9.38,9.38,0,0,0-2.09-.21q-2.14,0-2.14,1.19a1.23,1.23,0,0,0,.09.49,1,1,0,0,0,.37.41,5.12,5.12,0,0,0,.75.43q0.47,0.23,1.2.51A18.72,18.72,0,0,1,84,20.06a5.91,5.91,0,0,1,1.54,1.16,3.59,3.59,0,0,1,.79,1.38,6.13,6.13,0,0,1,.23,1.76A4.07,4.07,0,0,1,84.78,28a8.91,8.91,0,0,1-5,1.22,14.27,14.27,0,0,1-5.52-1L75,24.51a14.73,14.73,0,0,0,2.38.72A11.5,11.5,0,0,0,79.76,25.49Z" style="fill:#fff"/><path d="M88.88,8.71L93.42,8v4.73h5.46v3.78H93.42v5.64a4.49,4.49,0,0,0,.5,2.29,2.16,2.16,0,0,0,2,.85,8.75,8.75,0,0,0,1.51-.14,7.78,7.78,0,0,0,1.42-.38l0.64,3.54a12.88,12.88,0,0,1-1.83.58,10.69,10.69,0,0,1-2.47.24,8.12,8.12,0,0,1-3.08-.5,4.82,4.82,0,0,1-2-1.4,5.21,5.21,0,0,1-1-2.18,12.82,12.82,0,0,1-.29-2.84V8.71Z" style="fill:#fff"/><path d="M100.29,20.85a9.81,9.81,0,0,1,.66-3.74,8,8,0,0,1,1.72-2.67,7.16,7.16,0,0,1,2.46-1.62,7.68,7.68,0,0,1,2.85-.55,7.09,7.09,0,0,1,5.4,2.09q2,2.09,2,6.15c0,0.26,0,.55,0,0.87s0,0.59-.06.84H105a3,3,0,0,0,1.31,2.23,5.27,5.27,0,0,0,3.11.82,13.15,13.15,0,0,0,2.46-.23,9.2,9.2,0,0,0,2-.56l0.61,3.69a6.3,6.3,0,0,1-1,.37,12.87,12.87,0,0,1-1.36.32q-0.75.14-1.6,0.23a15.89,15.89,0,0,1-1.71.09,10.11,10.11,0,0,1-3.77-.64,7.32,7.32,0,0,1-2.65-1.75,7,7,0,0,1-1.56-2.64A10.46,10.46,0,0,1,100.29,20.85ZM111,19.11a4.72,4.72,0,0,0-.2-1.13,2.82,2.82,0,0,0-.52-1,2.76,2.76,0,0,0-.88-0.7A2.88,2.88,0,0,0,108,16a3,3,0,0,0-1.31.26,2.72,2.72,0,0,0-.92.69,3.08,3.08,0,0,0-.56,1,6.46,6.46,0,0,0-.29,1.14h6Z" style="fill:#fff"/><path d="M127.62,16.73q-0.61-.15-1.43-0.32a8.86,8.86,0,0,0-1.77-.17,8.31,8.31,0,0,0-1,.08,6.06,6.06,0,0,0-.9.17V28.75h-4.54V13.56a27.28,27.28,0,0,1,2.88-.81,16.62,16.62,0,0,1,3.71-.38q0.37,0,.88,0t1,0.12q0.52,0.08,1,.18a4.94,4.94,0,0,1,.88.26Z" style="fill:#fff"/><path d="M139.85,29.18q-5.15,0-7.85-2.87t-2.7-8.14a12.52,12.52,0,0,1,.82-4.68A10.08,10.08,0,0,1,132.37,10a9.43,9.43,0,0,1,3.42-2.15,12.33,12.33,0,0,1,4.3-.73,13.81,13.81,0,0,1,2.44.2,15.94,15.94,0,0,1,1.92.46,9.49,9.49,0,0,1,1.37.53q0.55,0.27.79,0.43l-1.37,3.84A11.53,11.53,0,0,0,143,11.7a10.84,10.84,0,0,0-2.94-.37,6.5,6.5,0,0,0-2.15.37A4.86,4.86,0,0,0,136,12.88a5.85,5.85,0,0,0-1.3,2.09,8.77,8.77,0,0,0-.49,3.11,11.09,11.09,0,0,0,.32,2.73,5.79,5.79,0,0,0,1,2.18,5,5,0,0,0,1.88,1.45,6.67,6.67,0,0,0,2.81.53,12.83,12.83,0,0,0,1.86-.12,13.63,13.63,0,0,0,1.46-.29,7.62,7.62,0,0,0,1.13-.38l0.88-.4,1.31,3.81a11.12,11.12,0,0,1-2.84,1.1A16.54,16.54,0,0,1,139.85,29.18Z" style="fill:#fff"/><path d="M155.16,29.06a11.39,11.39,0,0,1-3.22-.43,4.77,4.77,0,0,1-2-1.11,3.69,3.69,0,0,1-1-1.74,9.36,9.36,0,0,1-.26-2.3V5.82l4.54-.73V22.56a6,6,0,0,0,.09,1.1,1.89,1.89,0,0,0,.35.82,1.84,1.84,0,0,0,.75.55,4.07,4.07,0,0,0,1.31.27Z" style="fill:#fff"/><path d="M163.7,12.28a10.52,10.52,0,0,1,3.35.46,5.21,5.21,0,0,1,2.15,1.31,4.83,4.83,0,0,1,1.14,2.07,10.24,10.24,0,0,1,.34,2.71v9.45q-1,.21-2.71.5a26.18,26.18,0,0,1-4.21.29,13.31,13.31,0,0,1-2.82-.27,6.11,6.11,0,0,1-2.18-.9,4.11,4.11,0,0,1-1.4-1.63,5.63,5.63,0,0,1-.49-2.47,4.68,4.68,0,0,1,.56-2.38,4.34,4.34,0,0,1,1.51-1.56A6.82,6.82,0,0,1,161.1,19a12.15,12.15,0,0,1,2.53-.26,14.39,14.39,0,0,1,1.57.08,7,7,0,0,1,1.11.2V18.63a2.52,2.52,0,0,0-.7-1.86,3.4,3.4,0,0,0-2.44-.7,15.53,15.53,0,0,0-2.29.17,9.82,9.82,0,0,0-2,.47L158.36,13q0.4-.12,1-0.26t1.3-.24q0.7-.11,1.48-0.18T163.7,12.28Zm0.37,13.3q0.67,0,1.28,0a8.67,8.67,0,0,0,1-.09V22Q166,22,165.5,21.89a9.21,9.21,0,0,0-1-.06,9.1,9.1,0,0,0-1.21.08,3.15,3.15,0,0,0-1,.29,1.7,1.7,0,0,0-.67.58,1.61,1.61,0,0,0-.24.92,1.56,1.56,0,0,0,.72,1.48A4,4,0,0,0,164.06,25.58Z" style="fill:#fff"/><path d="M178.49,25.49a4.53,4.53,0,0,0,1.77-.24,0.94,0.94,0,0,0,.52-0.95,1.16,1.16,0,0,0-.67-1,12.87,12.87,0,0,0-2-.93,20.74,20.74,0,0,1-1.94-.82,5.69,5.69,0,0,1-1.48-1,4.13,4.13,0,0,1-.95-1.42,5.24,5.24,0,0,1-.34-2A4.29,4.29,0,0,1,175,13.59a7.3,7.3,0,0,1,4.61-1.31,14.77,14.77,0,0,1,2.81.26,13.09,13.09,0,0,1,2.14.56l-0.79,3.54a16.77,16.77,0,0,0-1.72-.49,9.38,9.38,0,0,0-2.09-.21q-2.14,0-2.14,1.19a1.23,1.23,0,0,0,.09.49,1,1,0,0,0,.37.41,5.12,5.12,0,0,0,.75.43q0.47,0.23,1.2.51a18.72,18.72,0,0,1,2.47,1.09,5.91,5.91,0,0,1,1.54,1.16,3.59,3.59,0,0,1,.79,1.38,6.13,6.13,0,0,1,.23,1.76A4.07,4.07,0,0,1,183.51,28a8.91,8.91,0,0,1-5,1.22,14.27,14.27,0,0,1-5.52-1l0.76-3.69a14.73,14.73,0,0,0,2.38.72A11.5,11.5,0,0,0,178.49,25.49Z" style="fill:#fff"/><path d="M192.37,25.49a4.53,4.53,0,0,0,1.77-.24,0.94,0.94,0,0,0,.52-0.95,1.16,1.16,0,0,0-.67-1,12.87,12.87,0,0,0-2-.93,20.74,20.74,0,0,1-1.94-.82,5.69,5.69,0,0,1-1.48-1,4.13,4.13,0,0,1-.95-1.42,5.24,5.24,0,0,1-.34-2,4.29,4.29,0,0,1,1.68-3.57,7.3,7.3,0,0,1,4.61-1.31,14.77,14.77,0,0,1,2.81.26,13.09,13.09,0,0,1,2.14.56l-0.79,3.54a16.77,16.77,0,0,0-1.72-.49,9.38,9.38,0,0,0-2.09-.21q-2.14,0-2.14,1.19a1.23,1.23,0,0,0,.09.49,1,1,0,0,0,.37.41,5.12,5.12,0,0,0,.75.43q0.47,0.23,1.2.51a18.72,18.72,0,0,1,2.47,1.09,5.91,5.91,0,0,1,1.54,1.16,3.59,3.59,0,0,1,.79,1.38,6.13,6.13,0,0,1,.23,1.76A4.07,4.07,0,0,1,197.38,28a8.91,8.91,0,0,1-5,1.22,14.27,14.27,0,0,1-5.52-1l0.76-3.69a14.73,14.73,0,0,0,2.38.72A11.5,11.5,0,0,0,192.37,25.49Z" style="fill:#fff"/><path d="M21,27a2.23,2.23,0,0,0-1,.25l-3.4-3.45a5.62,5.62,0,0,0,1.24-3.29l2.8-.1a1.41,1.41,0,1,0,0-1.31l-2.87.1a5.63,5.63,0,0,0-2.18-3.47L18.31,11a2.89,2.89,0,0,0,.86.13,2.93,2.93,0,1,0-2-.79l-2.76,4.76a5.6,5.6,0,0,0-4.14-.13L6.75,7.79a4.25,4.25,0,1,0-1.18.58l3.53,7.15a5.69,5.69,0,0,0-1.89,2l-2.4-1v0a1.87,1.87,0,1,0-.48,1.24l2.39,1a5.62,5.62,0,0,0,2.62,6.38L6.59,31.58a3.59,3.59,0,1,0,1.21.51l2.76-6.41a5.7,5.7,0,0,0,1.62.24,5.63,5.63,0,0,0,3.47-1.2L19,28.18A2.24,2.24,0,1,0,21,27" style="fill:#fff"/><line x1="23.26" y1="37.69" x2="201.16" y2="37.69" style="fill:none;stroke:#fff;stroke-linecap:round;stroke-miterlimit:10;stroke-width:0.25px"/></svg>